<?xml version="1.0" encoding="UTF-8"?>
<svg id="_レイヤー_2" data-name="レイヤー 2" xmlns="http://www.w3.org/2000/svg" viewBox="0 0 263.88 122.03">
  <defs>
    <style>
      .cls-1 {
        fill: #fff;
      }
    </style>
  </defs>
  <g id="_レイヤー_1-2" data-name="レイヤー 1">
    <g>
      <g>
        <g>
          <path class="cls-1" d="M26,21.13c-.96,0-1.74-.78-1.74-1.74V1.74c0-.96.78-1.74,1.74-1.74s1.74.78,1.74,1.74v17.66c0,.96-.78,1.74-1.74,1.74Z"/>
          <path class="cls-1" d="M26,52c-.96,0-1.74-.78-1.74-1.74v-17.66c0-.96.78-1.74,1.74-1.74s1.74.78,1.74,1.74v17.66c0,.96-.78,1.74-1.74,1.74Z"/>
        </g>
        <g>
          <path class="cls-1" d="M19.4,27.74H1.74c-.96,0-1.74-.78-1.74-1.74s.78-1.74,1.74-1.74h17.66c.96,0,1.74.78,1.74,1.74s-.78,1.74-1.74,1.74Z"/>
          <path class="cls-1" d="M50.26,27.74h-17.66c-.96,0-1.74-.78-1.74-1.74s.78-1.74,1.74-1.74h17.66c.96,0,1.74.78,1.74,1.74s-.78,1.74-1.74,1.74Z"/>
        </g>
      </g>
      <g>
        <g>
          <path class="cls-1" d="M96.63,21.13c-.96,0-1.74-.78-1.74-1.74V1.74c0-.96.78-1.74,1.74-1.74s1.74.78,1.74,1.74v17.66c0,.96-.78,1.74-1.74,1.74Z"/>
          <path class="cls-1" d="M96.63,52c-.96,0-1.74-.78-1.74-1.74v-17.66c0-.96.78-1.74,1.74-1.74s1.74.78,1.74,1.74v17.66c0,.96-.78,1.74-1.74,1.74Z"/>
        </g>
        <g>
          <path class="cls-1" d="M90.02,27.74h-17.66c-.96,0-1.74-.78-1.74-1.74s.78-1.74,1.74-1.74h17.66c.96,0,1.74.78,1.74,1.74s-.78,1.74-1.74,1.74Z"/>
          <path class="cls-1" d="M120.89,27.74h-17.66c-.96,0-1.74-.78-1.74-1.74s.78-1.74,1.74-1.74h17.66c.96,0,1.74.78,1.74,1.74s-.78,1.74-1.74,1.74Z"/>
        </g>
      </g>
      <g>
        <g>
          <path class="cls-1" d="M167.26,21.13c-.96,0-1.74-.78-1.74-1.74V1.74c0-.96.78-1.74,1.74-1.74s1.74.78,1.74,1.74v17.66c0,.96-.78,1.74-1.74,1.74Z"/>
          <path class="cls-1" d="M167.26,52c-.96,0-1.74-.78-1.74-1.74v-17.66c0-.96.78-1.74,1.74-1.74s1.74.78,1.74,1.74v17.66c0,.96-.78,1.74-1.74,1.74Z"/>
        </g>
        <g>
          <path class="cls-1" d="M160.65,27.74h-17.66c-.96,0-1.74-.78-1.74-1.74s.78-1.74,1.74-1.74h17.66c.96,0,1.74.78,1.74,1.74s-.78,1.74-1.74,1.74Z"/>
          <path class="cls-1" d="M191.52,27.74h-17.66c-.96,0-1.74-.78-1.74-1.74s.78-1.74,1.74-1.74h17.66c.96,0,1.74.78,1.74,1.74s-.78,1.74-1.74,1.74Z"/>
        </g>
      </g>
      <g>
        <g>
          <path class="cls-1" d="M237.89,21.13c-.96,0-1.74-.78-1.74-1.74V1.74c0-.96.78-1.74,1.74-1.74s1.74.78,1.74,1.74v17.66c0,.96-.78,1.74-1.74,1.74Z"/>
          <path class="cls-1" d="M237.89,52c-.96,0-1.74-.78-1.74-1.74v-17.66c0-.96.78-1.74,1.74-1.74s1.74.78,1.74,1.74v17.66c0,.96-.78,1.74-1.74,1.74Z"/>
        </g>
        <g>
          <path class="cls-1" d="M231.28,27.74h-17.66c-.96,0-1.74-.78-1.74-1.74s.78-1.74,1.74-1.74h17.66c.96,0,1.74.78,1.74,1.74s-.78,1.74-1.74,1.74Z"/>
          <path class="cls-1" d="M262.15,27.74h-17.66c-.96,0-1.74-.78-1.74-1.74s.78-1.74,1.74-1.74h17.66c.96,0,1.74.78,1.74,1.74s-.78,1.74-1.74,1.74Z"/>
        </g>
      </g>
      <g>
        <g>
          <path class="cls-1" d="M26,91.17c-.96,0-1.74-.78-1.74-1.74v-17.66c0-.96.78-1.74,1.74-1.74s1.74.78,1.74,1.74v17.66c0,.96-.78,1.74-1.74,1.74Z"/>
          <path class="cls-1" d="M26,122.03c-.96,0-1.74-.78-1.74-1.74v-17.66c0-.96.78-1.74,1.74-1.74s1.74.78,1.74,1.74v17.66c0,.96-.78,1.74-1.74,1.74Z"/>
        </g>
        <g>
          <path class="cls-1" d="M19.4,97.77H1.74c-.96,0-1.74-.78-1.74-1.74s.78-1.74,1.74-1.74h17.66c.96,0,1.74.78,1.74,1.74s-.78,1.74-1.74,1.74Z"/>
          <path class="cls-1" d="M50.26,97.77h-17.66c-.96,0-1.74-.78-1.74-1.74s.78-1.74,1.74-1.74h17.66c.96,0,1.74.78,1.74,1.74s-.78,1.74-1.74,1.74Z"/>
        </g>
      </g>
      <g>
        <g>
          <path class="cls-1" d="M96.63,91.17c-.96,0-1.74-.78-1.74-1.74v-17.66c0-.96.78-1.74,1.74-1.74s1.74.78,1.74,1.74v17.66c0,.96-.78,1.74-1.74,1.74Z"/>
          <path class="cls-1" d="M96.63,122.03c-.96,0-1.74-.78-1.74-1.74v-17.66c0-.96.78-1.74,1.74-1.74s1.74.78,1.74,1.74v17.66c0,.96-.78,1.74-1.74,1.74Z"/>
        </g>
        <g>
          <path class="cls-1" d="M90.02,97.77h-17.66c-.96,0-1.74-.78-1.74-1.74s.78-1.74,1.74-1.74h17.66c.96,0,1.74.78,1.74,1.74s-.78,1.74-1.74,1.74Z"/>
          <path class="cls-1" d="M120.89,97.77h-17.66c-.96,0-1.74-.78-1.74-1.74s.78-1.74,1.74-1.74h17.66c.96,0,1.74.78,1.74,1.74s-.78,1.74-1.74,1.74Z"/>
        </g>
      </g>
      <g>
        <g>
          <path class="cls-1" d="M167.26,91.17c-.96,0-1.74-.78-1.74-1.74v-17.66c0-.96.78-1.74,1.74-1.74s1.74.78,1.74,1.74v17.66c0,.96-.78,1.74-1.74,1.74Z"/>
          <path class="cls-1" d="M167.26,122.03c-.96,0-1.74-.78-1.74-1.74v-17.66c0-.96.78-1.74,1.74-1.74s1.74.78,1.74,1.74v17.66c0,.96-.78,1.74-1.74,1.74Z"/>
        </g>
        <g>
          <path class="cls-1" d="M160.65,97.77h-17.66c-.96,0-1.74-.78-1.74-1.74s.78-1.74,1.74-1.74h17.66c.96,0,1.74.78,1.74,1.74s-.78,1.74-1.74,1.74Z"/>
          <path class="cls-1" d="M191.52,97.77h-17.66c-.96,0-1.74-.78-1.74-1.74s.78-1.74,1.74-1.74h17.66c.96,0,1.74.78,1.74,1.74s-.78,1.74-1.74,1.74Z"/>
        </g>
      </g>
      <g>
        <g>
          <path class="cls-1" d="M237.89,91.17c-.96,0-1.74-.78-1.74-1.74v-17.66c0-.96.78-1.74,1.74-1.74s1.74.78,1.74,1.74v17.66c0,.96-.78,1.74-1.74,1.74Z"/>
          <path class="cls-1" d="M237.89,122.03c-.96,0-1.74-.78-1.74-1.74v-17.66c0-.96.78-1.74,1.74-1.74s1.74.78,1.74,1.74v17.66c0,.96-.78,1.74-1.74,1.74Z"/>
        </g>
        <g>
          <path class="cls-1" d="M231.28,97.77h-17.66c-.96,0-1.74-.78-1.74-1.74s.78-1.74,1.74-1.74h17.66c.96,0,1.74.78,1.74,1.74s-.78,1.74-1.74,1.74Z"/>
          <path class="cls-1" d="M262.15,97.77h-17.66c-.96,0-1.74-.78-1.74-1.74s.78-1.74,1.74-1.74h17.66c.96,0,1.74.78,1.74,1.74s-.78,1.74-1.74,1.74Z"/>
        </g>
      </g>
    </g>
  </g>
</svg>