<?xml version="1.0" encoding="UTF-8"?>
<svg id="_レイヤー_2" data-name="レイヤー 2" xmlns="http://www.w3.org/2000/svg" viewBox="0 0 135.13 112.46">
  <defs>
    <style>
      .cls-1 {
        fill: #fff;
      }
    </style>
  </defs>
  <g id="_レイヤー_1-2" data-name="レイヤー 1">
    <g>
      <g>
        <g>
          <path class="cls-1" d="M31.32,75.27c1.16,0,2.1-.94,2.1-2.1v-21.27c0-1.16-.94-2.1-2.1-2.1s-2.1.94-2.1,2.1v21.27c0,1.16.94,2.1,2.1,2.1Z"/>
          <path class="cls-1" d="M31.32,112.46c1.16,0,2.1-.94,2.1-2.1v-21.27c0-1.16-.94-2.1-2.1-2.1s-2.1.94-2.1,2.1v21.27c0,1.16.94,2.1,2.1,2.1Z"/>
        </g>
        <g>
          <path class="cls-1" d="M39.28,83.23h21.27c1.16,0,2.1-.94,2.1-2.1,0-1.16-.94-2.1-2.1-2.1h-21.27c-1.16,0-2.1.94-2.1,2.1s.94,2.1,2.1,2.1Z"/>
          <path class="cls-1" d="M2.1,83.23h21.27c1.16,0,2.1-.94,2.1-2.1s-.94-2.1-2.1-2.1H2.1c-1.16,0-2.1.94-2.1,2.1,0,1.16.94,2.1,2.1,2.1Z"/>
        </g>
      </g>
      <g>
        <g>
          <path class="cls-1" d="M94.52,33.01c1.5,0,2.72-1.22,2.72-2.72V2.72c0-1.5-1.22-2.72-2.72-2.72s-2.72,1.22-2.72,2.72v27.58c0,1.5,1.22,2.72,2.72,2.72Z"/>
          <path class="cls-1" d="M94.52,81.22c1.5,0,2.72-1.22,2.72-2.72v-27.58c0-1.5-1.22-2.72-2.72-2.72s-2.72,1.22-2.72,2.72v27.58c0,1.5,1.22,2.72,2.72,2.72Z"/>
        </g>
        <g>
          <path class="cls-1" d="M104.83,43.32h27.58c1.5,0,2.72-1.22,2.72-2.72s-1.22-2.72-2.72-2.72h-27.58c-1.5,0-2.72,1.22-2.72,2.72,0,1.5,1.22,2.72,2.72,2.72Z"/>
          <path class="cls-1" d="M56.62,43.32h27.58c1.5,0,2.72-1.22,2.72-2.72s-1.22-2.72-2.72-2.72h-27.58c-1.5,0-2.72,1.22-2.72,2.72,0,1.5,1.22,2.72,2.72,2.72Z"/>
        </g>
      </g>
    </g>
  </g>
</svg>